<svg width="86" height="86" viewBox="0 0 86 86" fill="none" xmlns="http://www.w3.org/2000/svg">
<path d="M72.7152 13.285C79.6249 20.1949 71.9229 39.1003 55.5116 55.5116C39.1003 71.9229 20.1949 79.6249 13.285 72.7152C6.37501 65.8051 14.0772 46.8997 30.4884 30.4884C46.8997 14.0772 65.8051 6.37501 72.7152 13.285Z" stroke="black" stroke-width="1.25" stroke-linecap="round"/>
<path d="M13.285 13.285C6.37501 20.1949 14.0772 39.1003 30.4884 55.5116C46.8997 71.9229 65.8051 79.6249 72.7152 72.7152C79.6249 65.8051 71.9229 46.8997 55.5116 30.4884C39.1003 14.0772 20.1949 6.37501 13.285 13.285Z" stroke="black" stroke-width="1.25" stroke-linecap="round"/>
<path d="M50.1668 42.9997C50.1668 46.9578 46.9583 50.1663 43.0002 50.1663C39.042 50.1663 35.8335 46.9578 35.8335 42.9997C35.8335 39.0415 39.042 35.833 43.0002 35.833C46.9583 35.833 50.1668 39.0415 50.1668 42.9997Z" stroke="black" stroke-width="1.25" stroke-linecap="round"/>
</svg>
