<svg width="34" height="34" viewBox="0 0 34 34" fill="none" xmlns="http://www.w3.org/2000/svg">
<path d="M15.0712 0.587044C12.0934 0.973915 9.36687 2.11518 6.982 3.95925C6.22786 4.546 4.94519 5.80977 4.31997 6.58351C2.54098 8.78867 1.36144 11.3936 0.858683 14.2306C0.678207 15.2365 0.607305 17.6544 0.723326 18.757C1.00049 21.3297 1.89642 23.8508 3.28867 25.9914C3.92034 26.9586 4.47466 27.6485 5.33837 28.5319C8.03907 31.3044 11.4488 32.9809 15.329 33.4322C16.1927 33.5354 18.294 33.516 19.2286 33.4064C24.0499 32.8068 28.3556 30.1051 31.0434 25.9914C32.397 23.9217 33.2607 21.5424 33.5701 19.06C33.699 18.0155 33.699 15.9844 33.5701 14.9334C32.9771 10.1492 30.2828 5.82912 26.2221 3.15972C24.1015 1.767 21.7424 0.902988 19.2286 0.587044C18.2489 0.470985 15.9994 0.470985 15.0712 0.587044ZM18.4938 2.81799C21.2332 3.08235 23.9081 4.16558 26.0932 5.90004C26.6733 6.35784 27.8013 7.48621 28.2589 8.06651C30.502 10.8971 31.6235 14.4885 31.3592 17.951C31.1401 20.7623 30.1926 23.2962 28.4909 25.5723C27.9044 26.359 26.525 27.7388 25.7387 28.3255C23.5665 29.9439 21.0656 30.924 18.4294 31.1755C13.7885 31.6268 8.98658 29.5829 6.04739 25.8947C3.78498 23.0577 2.64411 19.2793 2.99217 15.733C3.24355 13.0958 4.22328 10.5941 5.84113 8.42114C6.42768 7.63451 7.80703 6.25467 8.59339 5.66792C11.5004 3.50146 15.039 2.4827 18.4938 2.81799Z" fill="white"/>
<path d="M24.9974 10.0715C24.9652 10.0779 24.8491 10.1037 24.7396 10.1295C24.5978 10.1618 24.0821 10.6325 22.8832 11.8253L21.2267 13.4824L20.4984 12.7602C20.1052 12.3669 19.712 12.0123 19.6347 11.9736C19.2673 11.7866 18.6227 11.9543 18.3713 12.3024C18.178 12.5603 18.1522 13.0504 18.3133 13.3599C18.3842 13.4953 19.0094 14.1723 19.6927 14.8493C20.9367 16.0873 20.9431 16.0938 21.2267 16.0938H21.5103L23.6954 13.9144C24.8943 12.7215 25.9191 11.6641 25.9707 11.5674C26.0222 11.4707 26.0609 11.2579 26.0609 11.0967C26.0609 10.5938 25.7773 10.2133 25.3197 10.1102C25.1779 10.0779 25.0361 10.0586 24.9974 10.0715Z" fill="white"/>
<path d="M8.73527 12.677C8.11005 13.0639 8.11005 14.031 8.73527 14.4179C8.94153 14.5404 9.07045 14.5469 12.5253 14.5469C15.9801 14.5469 16.109 14.5404 16.3153 14.4179C16.9405 14.031 16.9405 13.0639 16.3153 12.677C16.109 12.5545 15.9801 12.5481 12.5253 12.5481C9.07045 12.5481 8.94153 12.5545 8.73527 12.677Z" fill="white"/>
<path d="M18.8096 17.1514C18.5453 17.2675 18.2746 17.5963 18.2231 17.8671C18.1264 18.3829 18.2037 18.5119 19.235 19.5436L20.1954 20.5172L19.2673 21.4392C18.2682 22.4193 18.1522 22.5998 18.2166 23.077C18.2875 23.5799 18.6871 23.9087 19.2286 23.9087C19.4026 23.9023 19.6089 23.87 19.6927 23.8249C19.7765 23.7798 20.247 23.3478 20.7433 22.8577L21.6521 21.9679L22.5158 22.8384C22.9928 23.3155 23.4698 23.754 23.5729 23.812C23.8436 23.9539 24.3335 23.941 24.5913 23.7798C24.9716 23.5412 25.1392 23.0898 25.0232 22.6385C24.9652 22.4322 24.7653 22.1872 24.0241 21.4457L23.0959 20.5043L23.9725 19.6403C24.4495 19.1631 24.8749 18.7118 24.9136 18.6409C25.2488 18.0348 24.9716 17.3126 24.3399 17.1256C23.8114 16.9644 23.676 17.0418 22.6125 18.0992L21.6392 19.06L20.7755 18.1831C19.6927 17.0934 19.351 16.9128 18.8096 17.1514Z" fill="white"/>
<path d="M8.58047 19.7624C8.3291 19.9945 8.30976 20.0332 8.29042 20.4201C8.25819 20.8972 8.38711 21.168 8.73517 21.3808C8.94143 21.5033 9.07034 21.5098 12.4929 21.5098C15.7415 21.5098 16.0574 21.4969 16.2636 21.3937C16.934 21.0584 16.9662 20.0397 16.3152 19.6399C16.1089 19.5174 15.98 19.5109 12.4736 19.5109H8.84474L8.58047 19.7624Z" fill="white"/>
</svg>
