<svg width="33" height="33" viewBox="0 0 33 33" fill="none" xmlns="http://www.w3.org/2000/svg">
<path d="M24.0472 8.95305C23.7451 8.6509 23.3866 8.41122 22.9919 8.24769C22.5972 8.08417 22.1743 8 21.7471 8C21.3199 8 20.8969 8.08417 20.5023 8.24769C20.1076 8.41122 19.749 8.6509 19.447 8.95305L18.5123 9.88962C18.4656 9.92699 18.4229 9.96915 18.3849 10.0154L9.10636 19.2978C8.98772 19.4162 8.90672 19.567 8.87355 19.7312L8.01707 23.9806C7.98912 24.118 7.99557 24.2601 8.03584 24.3943C8.0761 24.5286 8.14893 24.6508 8.24785 24.7501C8.34676 24.8493 8.46868 24.9226 8.60275 24.9633C8.73683 25.0041 8.87889 25.011 9.01629 24.9835L13.2715 24.1336C13.4357 24.1004 13.5865 24.0194 13.7048 23.9008L24.0472 13.556C24.3493 13.2539 24.5889 12.8952 24.7524 12.5005C24.9159 12.1057 25 11.6827 25 11.2554C25 10.8281 24.9159 10.405 24.7524 10.0103C24.5889 9.61552 24.3493 9.25686 24.0472 8.95475V8.95305ZM19.0493 11.7577L21.2466 13.9554L12.6852 22.5171L9.93565 23.0679L10.4879 20.3211L19.0493 11.7577ZM22.4481 12.7537L20.2508 10.5542L20.6484 10.1565C20.792 10.0093 20.9633 9.89217 21.1524 9.81174C21.3416 9.73131 21.5448 9.68923 21.7503 9.68793C21.9558 9.68663 22.1596 9.72614 22.3497 9.80417C22.5398 9.8822 22.7126 9.9972 22.858 10.1425C23.0034 10.2878 23.1185 10.4605 23.1966 10.6507C23.2748 10.8408 23.3145 11.0445 23.3133 11.2501C23.3122 11.4557 23.2703 11.659 23.19 11.8482C23.1097 12.0375 22.9927 12.2089 22.8457 12.3526L22.4481 12.7503V12.7537Z" fill="#308CFF"/>
<rect x="0.5" y="-0.5" width="32" height="32" rx="16" transform="matrix(1 0 0 -1 0 32)" stroke="#308CFF"/>
</svg>
