<svg width="34" height="34" viewBox="0 0 34 34" fill="none" xmlns="http://www.w3.org/2000/svg">
<path d="M0.903786 21.5113L0.903818 21.5114C2.13109 26.0317 5.43178 29.9803 9.7042 32.0458L0.903786 21.5113ZM0.903786 21.5113C-0.733656 15.4657 1.01069 9.15342 5.51408 4.89855L0.903786 21.5113ZM22.7516 32.7284L22.7518 32.7283C27.9786 30.8029 31.8968 26.4335 33.2467 21.0278C33.5767 19.7165 33.7 18.6022 33.7 17.028C33.7 14.7026 33.3376 12.7991 32.5144 10.75L32.5141 10.7494C30.1516 4.92331 24.7104 0.907764 18.4297 0.37291C17.3039 0.274357 16.6413 0.274395 15.4751 0.381104C11.7937 0.702263 8.2545 2.30724 5.51414 4.89849L22.7516 32.7284ZM22.7516 32.7284C20.9543 33.3877 19.1089 33.7 16.9893 33.7C14.3083 33.7 12.0662 33.1893 9.70431 32.0459L22.7516 32.7284ZM19.1047 2.68026L19.1062 2.68051C20.729 2.92945 22.0346 3.34597 23.4387 4.05179L23.4389 4.05188C28.3986 6.53885 31.5107 11.5436 31.5107 17.028C31.5107 23.5385 27.0825 29.2978 20.7514 31.0224C18.4753 31.6392 15.7535 31.6554 13.4361 31.0623L19.1047 2.68026ZM19.1047 2.68026C18.6165 2.60155 17.8119 2.56086 16.9982 2.55984C16.185 2.55883 15.3821 2.59748 14.8974 2.67229C10.1227 3.41831 6.04694 6.43415 3.95282 10.7732L3.9527 10.7735M19.1047 2.68026L3.9527 10.7735M3.9527 10.7735C1.1456 16.57 2.58082 23.5952 7.44265 27.878M3.9527 10.7735L7.44265 27.878M7.44265 27.878C9.1518 29.378 11.2871 30.5092 13.4359 31.0623L7.44265 27.878Z" fill="white" stroke="white" stroke-width="0.4"/>
<path d="M16.2979 9.3371C15.6066 9.65418 15.265 10.1989 15.2731 10.9794C15.2731 11.9957 15.9726 12.6868 16.9974 12.7031C17.9571 12.7112 18.681 12.0526 18.7623 11.1014C18.803 10.5648 18.6728 10.1501 18.3475 9.77613C17.8514 9.20701 16.9811 9.02001 16.2979 9.3371Z" fill="white"/>
<path d="M14.6632 14.6616C14.3541 14.9706 14.2972 15.3527 14.5005 15.7592C14.6632 16.06 14.9478 16.1739 15.566 16.1739H16.0946V19.6293V23.0846H15.5172C14.8584 23.0846 14.6794 23.1578 14.5086 23.4912C14.3134 23.8733 14.3541 24.2635 14.6225 24.5644L14.8584 24.8327L16.8998 24.8571C19.1772 24.8814 19.3236 24.8571 19.5676 24.353C19.7465 23.979 19.657 23.5562 19.3398 23.296C19.1202 23.109 19.0145 23.0846 18.4858 23.0846H17.884V19.0113C17.884 16.3771 17.8514 14.8893 17.8026 14.7836C17.6237 14.4584 17.3065 14.3852 16.0865 14.3852H14.9397L14.6632 14.6616Z" fill="white"/>
</svg>
