<svg width="24" height="23" viewBox="0 0 24 23" fill="none" xmlns="http://www.w3.org/2000/svg">
<rect width="24" height="23.0001" rx="4" fill="#308CFF"/>
<path d="M6.5 7H5.5C4.96957 7 4.46086 7.21071 4.08579 7.58579C3.71071 7.96086 3.5 8.46957 3.5 9V18C3.5 18.5304 3.71071 19.0391 4.08579 19.4142C4.46086 19.7893 4.96957 20 5.5 20H14.5C15.0304 20 15.5391 19.7893 15.9142 19.4142C16.2893 19.0391 16.5 18.5304 16.5 18V17" stroke="white" stroke-width="2" stroke-linecap="round" stroke-linejoin="round"/>
<path d="M15.5 5.00011L18.5 8.00011M19.885 6.58511C20.2788 6.19126 20.5001 5.65709 20.5001 5.10011C20.5001 4.54312 20.2788 4.00895 19.885 3.61511C19.4912 3.22126 18.957 3 18.4 3C17.843 3 17.3088 3.22126 16.915 3.61511L8.5 12.0001V15.0001H11.5L19.885 6.58511Z" stroke="white" stroke-width="2" stroke-linecap="round" stroke-linejoin="round"/>
</svg>
